<?xml version="1.0" encoding="UTF-8"?><svg id="logos" xmlns="http://www.w3.org/2000/svg" viewBox="0 0 507 185"><defs><style>.cls-1{fill:#05df4b;}.cls-1,.cls-2,.cls-3{stroke-width:0px;}.cls-2{fill:#373c32;}.cls-3{fill:#334f3f;}</style></defs><path class="cls-2" d="M83.11,74.11c-1.93-.81-3.35-.27-4.25,1.62l-10.84,24.48-12.36-24.55c-.4-.85-.99-1.43-1.75-1.72-.76-.29-1.57-.26-2.43.1-.85.36-1.45.93-1.79,1.72-.34.79-.28,1.61.17,2.46l15.15,28.78-6.72,15.18c-.9,1.93-.36,3.35,1.62,4.25.63.27,1.17.4,1.62.4,1.21,0,2.09-.7,2.63-2.09l20.63-46.39c.9-1.98.34-3.39-1.69-4.25Z"/><path class="cls-2" d="M114.19,75.89c-2.79-1.59-5.98-2.39-9.57-2.39s-6.86.8-9.64,2.39c-2.79,1.6-4.98,3.8-6.57,6.61-1.6,2.81-2.39,6.06-2.39,9.74s.8,6.87,2.39,9.68c1.6,2.81,3.79,5.01,6.57,6.61,2.79,1.6,6,2.39,9.64,2.39s6.85-.8,9.64-2.39c2.79-1.6,4.97-3.8,6.54-6.61,1.57-2.81,2.36-6.03,2.36-9.68s-.8-6.93-2.39-9.74c-1.6-2.81-3.79-5.01-6.57-6.61ZM115.04,98.78c-1.01,1.89-2.42,3.37-4.21,4.45-1.8,1.08-3.87,1.62-6.2,1.62s-4.41-.54-6.2-1.62c-1.8-1.08-3.21-2.56-4.25-4.45-1.03-1.89-1.55-4.07-1.55-6.54s.52-4.66,1.55-6.57c1.03-1.91,2.45-3.41,4.25-4.48,1.8-1.08,3.87-1.62,6.2-1.62s4.4.54,6.2,1.62c1.8,1.08,3.2,2.57,4.21,4.48,1.01,1.91,1.52,4.1,1.52,6.57s-.51,4.65-1.52,6.54Z"/><path class="cls-2" d="M141.83,103.91h-1.69c-.99,0-1.8-.54-2.43-1.62-.63-1.08-.94-2.45-.94-4.11v-36.81c0-.99-.32-1.8-.94-2.43-.63-.63-1.44-.94-2.43-.94s-1.8.31-2.43.94c-.63.63-.94,1.44-.94,2.43v36.81c0,2.43.43,4.57,1.28,6.44.85,1.87,2.04,3.34,3.57,4.42,1.53,1.08,3.28,1.62,5.26,1.62h.13c1.35,0,2.45-.31,3.3-.94.85-.63,1.28-1.44,1.28-2.43s-.28-1.8-.84-2.43c-.56-.63-1.29-.94-2.19-.94Z"/><path class="cls-2" d="M180.43,82.5c-1.6-2.81-3.79-5.01-6.57-6.61-2.79-1.59-5.98-2.39-9.57-2.39s-6.85.8-9.64,2.39c-2.79,1.6-4.98,3.8-6.57,6.61-1.6,2.81-2.39,6.06-2.39,9.74s.8,6.87,2.39,9.68c1.6,2.81,3.79,5.01,6.57,6.61,2.79,1.6,6,2.39,9.64,2.39s6.85-.8,9.64-2.39c2.79-1.6,4.97-3.8,6.54-6.61,1.57-2.81,2.36-6.03,2.36-9.68s-.8-6.93-2.39-9.74ZM174.7,98.78c-1.01,1.89-2.42,3.37-4.21,4.45-1.8,1.08-3.87,1.62-6.2,1.62s-4.41-.54-6.2-1.62c-1.8-1.08-3.21-2.56-4.25-4.45-1.03-1.89-1.55-4.07-1.55-6.54s.52-4.66,1.55-6.57c1.03-1.91,2.45-3.41,4.25-4.48,1.8-1.08,3.87-1.62,6.2-1.62s4.4.54,6.2,1.62c1.8,1.08,3.2,2.57,4.21,4.48,1.01,1.91,1.52,4.1,1.52,6.57s-.51,4.65-1.52,6.54Z"/><path class="cls-2" d="M327.61,76.02c-2.61-1.64-5.55-2.46-8.83-2.46-2.65,0-5.09.55-7.32,1.65-2.22,1.1-4.12,2.6-5.7,4.48v-18.2c0-1.03-.31-1.86-.94-2.49-.63-.63-1.46-.94-2.49-.94s-1.81.31-2.46.94c-.65.63-.98,1.46-.98,2.49v30.75c.04,3.55.88,6.74,2.49,9.57,1.62,2.83,3.82,5.07,6.61,6.71,2.79,1.64,5.93,2.46,9.44,2.46s6.72-.82,9.51-2.46c2.79-1.64,5-3.88,6.64-6.71,1.64-2.83,2.46-6.02,2.46-9.57s-.75-6.73-2.26-9.54c-1.51-2.81-3.56-5.03-6.17-6.67ZM327.85,98.71c-1.06,1.93-2.48,3.45-4.28,4.55-1.8,1.1-3.84,1.65-6.14,1.65s-4.28-.55-6.1-1.65c-1.82-1.1-3.25-2.62-4.28-4.55-1.03-1.93-1.55-4.09-1.55-6.47s.52-4.59,1.55-6.47c1.03-1.89,2.46-3.38,4.28-4.48,1.82-1.1,3.85-1.65,6.1-1.65s4.34.55,6.14,1.65c1.8,1.1,3.22,2.6,4.28,4.48,1.06,1.89,1.58,4.05,1.58,6.47s-.53,4.54-1.58,6.47Z"/><path class="cls-2" d="M370.42,76.02c-2.79-1.64-5.93-2.46-9.44-2.46s-6.66.82-9.47,2.46c-2.81,1.64-5.03,3.88-6.67,6.71-1.64,2.83-2.46,6.02-2.46,9.57s.75,6.73,2.26,9.54c1.51,2.81,3.56,5.04,6.17,6.67,2.61,1.64,5.55,2.46,8.83,2.46s6.22-.82,8.83-2.46c1.6-1.01,2.99-2.24,4.18-3.69v2.51c0,.99.33,1.81.98,2.46.65.65,1.47.98,2.46.98s1.81-.33,2.46-.98c.65-.65.98-1.47.98-2.46v-15.04c0-3.55-.82-6.74-2.46-9.57-1.64-2.83-3.86-5.07-6.64-6.71ZM367.12,103.26c-1.8,1.1-3.84,1.65-6.14,1.65s-4.28-.55-6.1-1.65c-1.82-1.1-3.26-2.61-4.32-4.52-1.06-1.91-1.58-4.06-1.58-6.44s.53-4.59,1.58-6.51c1.06-1.91,2.49-3.42,4.32-4.52,1.82-1.1,3.85-1.65,6.1-1.65s4.34.55,6.14,1.65c1.8,1.1,3.21,2.61,4.25,4.52,1.03,1.91,1.55,4.08,1.55,6.51s-.52,4.53-1.55,6.44c-1.03,1.91-2.45,3.42-4.25,4.52Z"/><path class="cls-2" d="M414.42,75.48c-2.45-1.32-5.23-1.99-8.33-1.99s-5.64.65-8.02,1.95c-1.3.71-2.44,1.56-3.44,2.55v-.73c0-1.03-.31-1.87-.94-2.5-.63-.63-1.46-.94-2.49-.94s-1.81.31-2.46.94c-.65.63-.98,1.46-.98,2.5v30.07c0,.99.33,1.81.98,2.46.65.65,1.47.98,2.46.98s1.86-.33,2.49-.98c.63-.65.94-1.47.94-2.46v-19.01c0-1.66.45-3.14,1.35-4.42.9-1.28,2.11-2.3,3.64-3.07,1.53-.76,3.24-1.15,5.12-1.15,2.07,0,3.9.39,5.5,1.18,1.6.79,2.87,1.99,3.81,3.61.94,1.62,1.42,3.71,1.42,6.27v16.59c0,.99.33,1.81.98,2.46.65.65,1.47.98,2.46.98s1.81-.33,2.46-.98c.65-.65.98-1.47.98-2.46v-16.59c0-3.73-.71-6.88-2.12-9.44-1.42-2.56-3.35-4.51-5.8-5.83Z"/><path class="cls-2" d="M459.56,105.86l-13.05-16.06,12.37-11.04c.67-.63,1.03-1.35,1.08-2.16.04-.81-.25-1.55-.88-2.23-.58-.67-1.29-1.03-2.12-1.08-.83-.04-1.58.25-2.26.88l-16.38,14.62v-27.43c0-.99-.3-1.79-.91-2.39-.61-.61-1.41-.91-2.39-.91s-1.79.3-2.39.91c-.61.61-.91,1.41-.91,2.39v46.05c0,.99.3,1.79.91,2.39.61.61,1.4.91,2.39.91s1.79-.3,2.39-.91c.61-.61.91-1.4.91-2.39v-10.3l3.36-3,12.83,15.86c.58.72,1.31,1.11,2.19,1.18.88.07,1.67-.19,2.39-.78.76-.63,1.18-1.36,1.25-2.19.07-.83-.19-1.61-.78-2.33Z"/><path class="cls-1" d="M282.64,74.08c-4.54-10.45-12.96-19.25-24.29-24.03-11.33-4.78-23.5-4.68-34.16-.64l16.89,41.56,41.56-16.89Z"/><path class="cls-3" d="M285.67,83.99l-43.7,17.76-14.65,34.71c22.19,6.66,46.3-4.35,55.51-26.18,3.64-8.63,4.45-17.74,2.84-26.3Z"/><path class="cls-2" d="M214.97,54.15c-7.25,4.82-13.22,11.76-16.86,20.38-9.17,21.74-.36,46.56,19.71,57.89l14.75-34.96-17.6-43.31Z"/></svg>